<svg width="32" height="32" viewBox="0 0 32 32" fill="none" xmlns="http://www.w3.org/2000/svg">
    <path fill-rule="evenodd" clip-rule="evenodd" d="M15.2933 10.2934C15.4808 10.1061 15.735 10.0009 16 10.0009C16.265 10.0009 16.5191 10.1061 16.7066 10.2934L26.7066 20.2934C26.8833 20.4829 26.9795 20.7336 26.9749 20.9927C26.9703 21.2518 26.8654 21.499 26.6821 21.6822C26.4989 21.8654 26.2517 21.9703 25.9927 21.9749C25.7336 21.9795 25.4829 21.8833 25.2933 21.7067L16 12.4134L6.70665 21.7067C6.6151 21.8049 6.5047 21.8837 6.38203 21.9384C6.25937 21.993 6.12695 22.0224 5.99268 22.0248C5.85841 22.0272 5.72503 22.0025 5.60052 21.9522C5.476 21.9019 5.36289 21.827 5.26793 21.7321C5.17297 21.6371 5.09811 21.524 5.04782 21.3995C4.99752 21.275 4.97282 21.1416 4.97519 21.0073C4.97756 20.8731 5.00695 20.7406 5.0616 20.618C5.11626 20.4953 5.19506 20.3849 5.29331 20.2934L15.2933 10.2934Z" fill="#CACACA"/>
</svg>
