<svg width="32" height="32" viewBox="0 0 32 32" fill="none" xmlns="http://www.w3.org/2000/svg">
    <path fill-rule="evenodd" clip-rule="evenodd" d="M16.7067 21.7067C16.5192 21.894 16.265 21.9992 16 21.9992C15.735 21.9992 15.4809 21.894 15.2934 21.7067L5.29335 11.7067C5.11671 11.5171 5.02055 11.2664 5.02512 11.0073C5.02969 10.7483 5.13464 10.5011 5.31786 10.3179C5.50107 10.1347 5.74825 10.0297 6.00732 10.0251C6.26639 10.0206 6.51712 10.1167 6.70669 10.2934L16 19.5867L25.2934 10.2934C25.3849 10.1951 25.4953 10.1163 25.618 10.0617C25.7406 10.007 25.8731 9.97762 26.0073 9.97525C26.1416 9.97288 26.275 9.99758 26.3995 10.0479C26.524 10.0982 26.6371 10.173 26.7321 10.268C26.827 10.3629 26.9019 10.4761 26.9522 10.6006C27.0025 10.7251 27.0272 10.8585 27.0248 10.9927C27.0224 11.127 26.9931 11.2594 26.9384 11.3821C26.8837 11.5048 26.8049 11.6152 26.7067 11.7067L16.7067 21.7067Z" fill="#CACACA"/>
</svg>
